<?xml version="1.0" encoding="UTF-8"?>
<svg width="64" height="64" version="1.1" xmlns="http://www.w3.org/2000/svg">
<g fill="#52cc58">
<rect width="11.93750%" height="11.93750%" x="12.78125%" y="12.78125%" />
<rect width="11.93750%" height="11.93750%" x="0.28125%" y="25.28125%" />
<rect width="11.75000%" height="11.75000%" x="0.37500%" y="37.87500%" />
<rect width="11.56250%" height="11.56250%" x="0.46875%" y="50.46876%" />
<rect width="11.37500%" height="11.37500%" x="38.06250%" y="25.56250%" />
<rect width="11.37500%" height="11.37500%" x="25.56250%" y="38.06250%" />
<rect width="11.37500%" height="11.37500%" x="63.06250%" y="0.56250%" />
<rect width="11.37500%" height="11.37500%" x="0.56250%" y="63.06251%" />
<rect width="11.18750%" height="11.18750%" x="25.65625%" y="50.65625%" />
<rect width="11.18750%" height="11.18750%" x="75.65625%" y="0.65625%" />
<rect width="11.18750%" height="11.18750%" x="63.15626%" y="13.15625%" />
<rect width="11.00000%" height="11.00000%" x="13.25000%" y="75.75000%" />
<rect width="11.00000%" height="11.00000%" x="75.75000%" y="13.25000%" />
<rect width="10.81250%" height="10.81250%" x="38.34375%" y="63.34375%" />
<rect width="10.81250%" height="10.81250%" x="88.34375%" y="13.34375%" />
<rect width="10.81250%" height="10.81250%" x="75.84375%" y="25.84375%" />
<rect width="10.62500%" height="10.62500%" x="88.43750%" y="25.93750%" />
<rect width="10.62500%" height="10.62500%" x="75.93750%" y="38.43750%" />
<rect width="10.43750%" height="10.43750%" x="88.53125%" y="38.53125%" />
<rect width="10.43750%" height="10.43750%" x="76.03125%" y="51.03126%" />
<rect width="10.25000%" height="10.25000%" x="88.62500%" y="51.12501%" />
<rect width="10.25000%" height="10.25000%" x="76.12500%" y="63.62501%" />
<rect width="10.25000%" height="10.25000%" x="63.62501%" y="76.12500%" />
<rect width="10.06250%" height="10.06250%" x="88.71875%" y="63.71875%" />
<rect width="10.06250%" height="10.06250%" x="76.21875%" y="76.21875%" />
<rect width="10.06250%" height="10.06250%" x="63.71876%" y="88.71875%" />
<rect width="9.87500%" height="9.87500%" x="88.81250%" y="76.31250%" />
<rect width="9.87500%" height="9.87500%" x="76.31250%" y="88.81250%" />
</g>
</svg>
